<?xml version="1.0" encoding="UTF-8" standalone="no"?>
<svg
   height="24px"
   viewBox="0 0 24 24"
   width="24px"
   fill="#FFFFFF"
   version="1.1"
   id="svg6"
   sodipodi:docname="pageview.svg"
   inkscape:version="1.1 (c68e22c387, 2021-05-23)"
   xmlns:inkscape="http://www.inkscape.org/namespaces/inkscape"
   xmlns:sodipodi="http://sodipodi.sourceforge.net/DTD/sodipodi-0.dtd"
   xmlns="http://www.w3.org/2000/svg"
   xmlns:svg="http://www.w3.org/2000/svg">
  <defs
     id="defs10" />
  <sodipodi:namedview
     id="namedview8"
     pagecolor="#ffffff"
     bordercolor="#cccccc"
     borderopacity="1"
     inkscape:pageshadow="0"
     inkscape:pageopacity="1"
     inkscape:pagecheckerboard="0"
     showgrid="false"
     inkscape:zoom="7.6603235"
     inkscape:cx="5.7438828"
     inkscape:cy="14.816607"
     inkscape:window-width="1366"
     inkscape:window-height="705"
     inkscape:window-x="-8"
     inkscape:window-y="760"
     inkscape:window-maximized="1"
     inkscape:current-layer="svg6" />
  <path
     d="m 11.388,18 c 1.056,0 2.04,-0.39 2.868,-1.05 l 2.928,3.66 1.704,-2.13 -2.928,-3.645 C 16.488,13.785 16.8,12.57 16.8,11.25 16.8,7.515 14.388,4.5 11.4,4.5 8.412,4.5 6,7.515 6,11.25 6,14.985 8.412,18 11.388,18 Z M 11.4,7.5 c 1.656,0 3,1.68 3,3.75 0,2.07 -1.344,3.75 -3,3.75 -1.656,0 -3,-1.68 -3,-3.75 0,-2.07 1.344,-3.75 3,-3.75 z M 21.6,0 H 2.4 C 1.08,0 0,1.35 0,3 v 18 c 0,1.65 1.08,3 2.4,3 H 21.6 C 22.92,24 24,22.65 24,21 V 3 C 24,1.35 22.92,0 21.6,0 Z m 0,21 H 2.4 V 3 h 19.2 z"
     id="path4"
     style="fill:#ffffff;fill-opacity:1;stroke-width:1.34164" />
</svg>
